<svg width="291.605" height="76.403" viewBox="0 0 291.605 76.403" xmlns="http://www.w3.org/2000/svg"><g id="svgGroup" stroke-linecap="round" fill-rule="evenodd" font-size="9pt" stroke="#000" stroke-width="0.25mm" fill="black" style="stroke:#000;stroke-width:0.25mm;fill:black"><path d="M 76.402 23 L 76.402 33.4 C 78.602 30.9 81.502 29.4 84.802 29.4 A 11.012 11.012 0 0 1 94.179 35.29 C 96.315 38.774 97.502 43.48 97.502 48.5 C 97.502 59 92.002 67.1 84.302 67.1 C 81.102 67.1 78.402 65.6 76.402 63.3 L 76.402 73.5 A 20.415 20.415 0 0 0 80.118 75.107 C 82.097 75.751 84.323 76.196 86.62 76.345 A 25.962 25.962 0 0 0 88.302 76.4 C 98.817 76.4 105.341 69.236 108.203 59.667 A 43.109 43.109 0 0 0 109.902 47.4 A 41.711 41.711 0 0 0 109.334 40.421 A 32.737 32.737 0 0 0 108.702 37.5 C 105.202 24.9 95.702 20.3 87.102 20.3 A 23.141 23.141 0 0 0 80.335 21.295 A 18.618 18.618 0 0 0 76.402 23 Z M 210.402 73.5 L 210.402 63.3 A 10.457 10.457 0 0 1 202.609 67.096 A 11.525 11.525 0 0 1 202.302 67.1 A 11.312 11.312 0 0 1 192.641 61.099 C 190.613 57.79 189.449 53.368 189.402 48.5 C 189.402 41.872 191.351 35.935 194.81 32.5 A 10.135 10.135 0 0 1 202.102 29.4 C 205.402 29.4 208.202 30.9 210.402 33.3 L 210.402 23 A 19.162 19.162 0 0 0 205.464 21.013 A 23.399 23.399 0 0 0 199.702 20.3 A 23.305 23.305 0 0 0 195.622 20.66 C 186.917 22.209 178.213 28.936 177.036 44.042 A 45.813 45.813 0 0 0 176.902 47.6 A 44.739 44.739 0 0 0 177.114 51.948 C 177.607 56.983 178.961 62.019 181.242 66.169 A 23.327 23.327 0 0 0 184.102 70.3 C 187.479 74.211 192.121 75.989 196.763 76.336 A 23.341 23.341 0 0 0 198.502 76.4 A 26.925 26.925 0 0 0 205.769 75.386 C 207.509 74.892 209.089 74.244 210.402 73.5 Z M 41.402 59.6 L 41.402 58.8 L 41.402 46.1 C 41.402 41.6 41.202 36.8 40.302 32.3 A 15.177 15.177 0 0 0 38.061 26.821 C 35.318 22.774 30.784 20.985 25.865 20.525 A 29.698 29.698 0 0 0 23.102 20.4 A 35.945 35.945 0 0 0 13.847 21.646 C 9.295 22.871 5.628 24.811 3.902 26.6 L 8.302 33.3 A 17.107 17.107 0 0 1 8.978 32.773 C 10.922 31.331 14.841 28.96 19.234 28.559 A 13.921 13.921 0 0 1 20.502 28.5 A 19.625 19.625 0 0 1 24.265 28.762 C 27.491 29.412 29.14 31.601 29.517 38.723 A 68.044 68.044 0 0 1 29.602 42.3 L 29.602 62.9 C 27.902 65.6 25.102 67.5 22.102 68.2 L 22.102 75.6 C 26.702 74.4 31.102 71.7 32.402 68.5 A 11.352 11.352 0 0 0 38.508 75.319 C 39.484 75.754 40.474 76 41.402 76 L 44.602 69.5 A 3.281 3.281 0 0 1 42.98 68.049 C 41.581 65.765 41.413 61.656 41.402 59.819 A 35.872 35.872 0 0 1 41.402 59.6 Z M 264.602 29.6 L 264.602 20.2 A 24.406 24.406 0 0 0 245.151 33.747 A 31.063 31.063 0 0 0 241.602 48.3 A 30.002 30.002 0 0 0 247.336 66.213 A 24.191 24.191 0 0 0 266.902 76.3 A 32.38 32.38 0 0 0 272.9 75.788 C 278.369 74.757 282.168 72.185 285.402 68.2 L 281.102 61.6 A 16.18 16.18 0 0 1 275.315 65.229 C 272.58 66.283 269.845 66.7 268.202 66.7 C 259.479 66.7 254.67 61.547 253.143 54.297 A 26.725 26.725 0 0 1 252.602 48.8 A 26.422 26.422 0 0 1 252.739 46.172 C 253.266 40.937 255.423 33.9 261.098 30.846 A 12.446 12.446 0 0 1 264.602 29.6 Z M 214.402 0 L 214.402 69.4 L 215.102 75.9 L 226.302 75.9 L 226.302 0 L 214.402 0 Z M 60.602 75.9 L 71.802 75.9 C 71.9 73.636 72.289 71.275 72.397 69.485 A 18.904 18.904 0 0 0 72.402 69.4 L 72.402 0 L 60.602 0 L 60.602 75.9 Z M 144.902 76.3 L 144.902 66.6 A 11.473 11.473 0 0 1 136.995 60.539 C 135.117 57.243 134.102 52.887 134.102 48.1 C 134.102 38.7 138.402 31.5 144.902 30.1 L 144.902 20.6 A 24.715 24.715 0 0 0 122.735 39.651 A 33.386 33.386 0 0 0 121.602 48.4 C 121.602 63.4 130.602 75.4 144.902 76.3 Z M 268.602 20.3 L 268.602 29.5 A 14.446 14.446 0 0 1 280.386 43.15 A 13.504 13.504 0 0 1 280.402 43.8 L 257.802 43.8 L 257.802 52.4 L 291.302 52.4 C 291.502 50.8 291.602 49.3 291.602 47.7 C 291.602 33.864 283.007 21.884 269.099 20.35 A 26.947 26.947 0 0 0 268.602 20.3 Z M 23.502 49.2 L 25.602 49.2 L 25.602 42.3 L 21.302 42.3 A 29.561 29.561 0 0 0 19.448 42.358 C 9.725 42.969 0.002 48.412 0.002 59.6 A 22.387 22.387 0 0 0 0.789 65.755 C 2.931 73.257 9.17 76.217 16.136 76.392 A 26.499 26.499 0 0 0 16.802 76.4 A 16.72 16.72 0 0 0 17.327 76.395 A 3.615 3.615 0 0 0 18.102 76.3 L 18.102 68.4 A 8.633 8.633 0 0 1 14.636 67.328 C 12.595 66.125 11.392 63.944 11.148 60.615 A 18.003 18.003 0 0 1 11.102 59.3 C 11.102 50.9 18.302 49.2 23.502 49.2 Z M 159.802 35.1 L 165.102 28.7 C 161.002 23.6 156.002 21 148.902 20.6 L 148.902 30 C 154.602 30.4 157.802 32.7 159.802 35.1 Z M 148.902 66.6 L 148.902 76.3 C 155.253 75.926 159.424 73.546 163.206 69.159 A 33.917 33.917 0 0 0 164.002 68.2 L 159.602 61.8 C 156.702 64.2 153.502 66.1 148.902 66.6 Z" vector-effect="non-scaling-stroke"/></g></svg>