<svg width="387.55" height="96.34" viewBox="0 0 387.55 96.34" xmlns="http://www.w3.org/2000/svg"><g id="svgGroup" stroke-linecap="round" fill-rule="evenodd" font-size="9pt" stroke="#000" stroke-width="0.25mm" fill="black" style="stroke:#000;stroke-width:0.25mm;fill:black"><path d="M 56.544 38.525 L 56.544 65.771 A 22.137 22.137 0 0 1 49.554 71.689 A 28.731 28.731 0 0 1 45.851 73.389 A 39.26 39.26 0 0 1 37.079 75.549 A 51.451 51.451 0 0 1 30.323 75.977 A 33.568 33.568 0 0 1 21.408 74.833 A 28.319 28.319 0 0 1 14.503 71.924 Q 7.618 67.871 3.883 60.327 A 36.404 36.404 0 0 1 0.712 50.482 A 48.391 48.391 0 0 1 0.001 42.725 L 0.001 37.158 A 54.444 54.444 0 0 1 0.832 27.344 Q 2.532 18.073 7.716 11.987 A 25.182 25.182 0 0 1 23.496 3.363 A 36.691 36.691 0 0 1 29.249 2.93 A 38.919 38.919 0 0 1 36.988 3.654 Q 43.569 4.99 48.097 8.789 A 22.713 22.713 0 0 1 54.916 18.853 A 33.106 33.106 0 0 1 56.495 25.684 L 44.386 25.684 A 19.685 19.685 0 0 0 42.686 20.065 Q 39.125 12.842 29.493 12.842 Q 21.192 12.842 16.871 18.823 A 20.118 20.118 0 0 0 14.132 24.349 Q 13.261 26.993 12.828 30.222 A 51.254 51.254 0 0 0 12.403 36.377 L 12.403 41.846 Q 12.403 53.369 17.262 59.741 A 15.634 15.634 0 0 0 28.661 66.014 A 21.654 21.654 0 0 0 30.763 66.113 Q 40.109 66.113 44.132 61.93 A 9.976 9.976 0 0 0 44.239 61.816 L 44.239 47.9 L 29.591 47.9 L 29.591 38.525 L 56.544 38.525 Z" id="0" vector-effect="non-scaling-stroke"/><path d="M 66.749 48.682 L 66.749 48.096 A 33.799 33.799 0 0 1 67.722 39.848 A 28.661 28.661 0 0 1 69.825 34.106 A 23.459 23.459 0 0 1 74.716 27.381 A 21.699 21.699 0 0 1 78.468 24.536 A 23.484 23.484 0 0 1 88.394 21.329 A 29.207 29.207 0 0 1 91.261 21.191 A 27.079 27.079 0 0 1 99.284 22.328 A 21.726 21.726 0 0 1 108.619 28.076 A 24.918 24.918 0 0 1 114.962 39.979 A 35.053 35.053 0 0 1 115.821 46.338 L 115.87 49.121 A 34.842 34.842 0 0 1 115.023 56.953 A 28.508 28.508 0 0 1 112.867 63.086 Q 109.864 69.238 104.273 72.607 A 23.518 23.518 0 0 1 94.534 75.81 A 29.532 29.532 0 0 1 91.358 75.977 A 27.135 27.135 0 0 1 83.157 74.794 A 21.601 21.601 0 0 1 73.463 68.53 A 25.308 25.308 0 0 1 67.619 56.966 A 37.314 37.314 0 0 1 66.749 48.682 Z M 78.614 49.121 A 31.886 31.886 0 0 0 78.977 54.091 Q 79.393 56.725 80.288 58.856 A 14.884 14.884 0 0 0 81.983 61.89 A 10.725 10.725 0 0 0 89.721 66.413 A 14.306 14.306 0 0 0 91.358 66.504 A 12.307 12.307 0 0 0 95.644 65.789 Q 98.671 64.673 100.709 61.816 A 15.512 15.512 0 0 0 102.812 57.491 Q 103.472 55.424 103.781 52.902 A 39.589 39.589 0 0 0 104.054 48.096 A 30.182 30.182 0 0 0 103.652 43.01 Q 103.18 40.253 102.154 38.03 A 15.16 15.16 0 0 0 100.611 35.4 A 11.396 11.396 0 0 0 96.734 31.978 Q 94.518 30.812 91.736 30.721 A 14.525 14.525 0 0 0 91.261 30.713 Q 85.45 30.713 82.032 35.327 A 14.897 14.897 0 0 0 79.9 39.579 Q 78.614 43.491 78.614 49.121 Z" id="1" vector-effect="non-scaling-stroke"/><path d="M 123.683 48.682 L 123.683 48.096 A 33.799 33.799 0 0 1 124.656 39.848 A 28.661 28.661 0 0 1 126.759 34.106 A 23.459 23.459 0 0 1 131.649 27.381 A 21.699 21.699 0 0 1 135.401 24.536 A 23.484 23.484 0 0 1 145.327 21.329 A 29.207 29.207 0 0 1 148.194 21.191 A 27.079 27.079 0 0 1 156.218 22.328 A 21.726 21.726 0 0 1 165.553 28.076 A 24.918 24.918 0 0 1 171.896 39.979 A 35.053 35.053 0 0 1 172.755 46.338 L 172.804 49.121 A 34.842 34.842 0 0 1 171.956 56.953 A 28.508 28.508 0 0 1 169.801 63.086 Q 166.798 69.238 161.207 72.607 A 23.518 23.518 0 0 1 151.468 75.81 A 29.532 29.532 0 0 1 148.292 75.977 A 27.135 27.135 0 0 1 140.091 74.794 A 21.601 21.601 0 0 1 130.397 68.53 A 25.308 25.308 0 0 1 124.552 56.966 A 37.314 37.314 0 0 1 123.683 48.682 Z M 135.548 49.121 A 31.886 31.886 0 0 0 135.911 54.091 Q 136.327 56.725 137.221 58.856 A 14.884 14.884 0 0 0 138.917 61.89 A 10.725 10.725 0 0 0 146.655 66.413 A 14.306 14.306 0 0 0 148.292 66.504 A 12.307 12.307 0 0 0 152.578 65.789 Q 155.604 64.673 157.643 61.816 A 15.512 15.512 0 0 0 159.745 57.491 Q 160.405 55.424 160.714 52.902 A 39.589 39.589 0 0 0 160.987 48.096 A 30.182 30.182 0 0 0 160.585 43.01 Q 160.113 40.253 159.088 38.03 A 15.16 15.16 0 0 0 157.545 35.4 A 11.396 11.396 0 0 0 153.668 31.978 Q 151.452 30.812 148.67 30.721 A 14.525 14.525 0 0 0 148.194 30.713 Q 142.384 30.713 138.966 35.327 A 14.897 14.897 0 0 0 136.833 39.579 Q 135.548 43.491 135.548 49.121 Z" id="2" vector-effect="non-scaling-stroke"/><path d="M 215.04 27.051 L 215.04 0 L 226.905 0 L 226.905 75 L 216.163 75 L 215.577 69.531 Q 210.255 75.977 201.368 75.977 Q 192.091 75.977 186.354 68.506 A 25.804 25.804 0 0 1 182.062 59.732 Q 180.616 54.639 180.616 48.193 A 42.774 42.774 0 0 1 181.348 40.041 Q 182.652 33.328 186.28 28.589 A 17.923 17.923 0 0 1 199.287 21.293 A 22.891 22.891 0 0 1 201.466 21.191 A 19.536 19.536 0 0 1 207.978 22.234 A 16.696 16.696 0 0 1 215.04 27.051 Z M 215.04 59.814 L 215.04 37.256 A 12.276 12.276 0 0 0 212.098 33.45 Q 209.66 31.385 206.163 30.998 A 15.169 15.169 0 0 0 204.493 30.908 A 11.553 11.553 0 0 0 200.413 31.598 Q 197.517 32.683 195.606 35.474 Q 192.611 39.851 192.487 48.469 A 52.274 52.274 0 0 0 192.481 49.219 A 34.036 34.036 0 0 0 192.784 53.908 Q 193.128 56.372 193.861 58.391 A 15.056 15.056 0 0 0 195.582 61.792 A 9.852 9.852 0 0 0 202.674 66.198 A 13.049 13.049 0 0 0 204.396 66.309 Q 210.924 66.309 214.308 61.079 A 15.287 15.287 0 0 0 215.04 59.814 Z" id="3" vector-effect="non-scaling-stroke"/><path d="M 285.646 48.438 L 285.646 49.121 Q 285.646 58.524 282.438 64.99 A 23.397 23.397 0 0 1 280.152 68.701 A 17.542 17.542 0 0 1 267.38 75.863 A 23.538 23.538 0 0 1 265.04 75.977 A 20.604 20.604 0 0 1 258.659 75.036 A 16.438 16.438 0 0 1 250.587 69.287 L 250.001 75 L 239.259 75 L 239.259 0 L 251.124 0 L 251.124 27.246 A 16.797 16.797 0 0 1 263.214 21.254 A 23.477 23.477 0 0 1 264.942 21.191 A 20.91 20.91 0 0 1 271.862 22.287 A 17.586 17.586 0 0 1 280.128 28.369 Q 284.53 34.096 285.42 43.459 A 52.66 52.66 0 0 1 285.646 48.438 Z M 273.78 49.609 L 273.78 48.096 A 39.353 39.353 0 0 0 273.541 43.602 Q 272.963 38.585 270.987 35.551 A 11.394 11.394 0 0 0 270.753 35.205 Q 267.726 30.908 261.964 30.908 A 13.627 13.627 0 0 0 257.493 31.6 Q 253.248 33.067 251.124 37.646 L 251.124 59.424 Q 253.877 65.396 260.085 66.188 A 15.629 15.629 0 0 0 262.062 66.309 A 11.886 11.886 0 0 0 265.879 65.725 A 9.622 9.622 0 0 0 270.655 62.158 A 13.595 13.595 0 0 0 272.514 58.448 Q 273.682 54.971 273.775 49.936 A 46.67 46.67 0 0 0 273.78 49.609 Z" id="4" vector-effect="non-scaling-stroke"/><path d="M 302.345 22.168 L 313.526 58.008 L 324.269 22.168 L 336.915 22.168 L 315.919 83.008 A 28.112 28.112 0 0 1 312.979 88.995 Q 310.502 92.724 307.068 94.559 A 15.777 15.777 0 0 1 299.513 96.338 A 17.923 17.923 0 0 1 296.791 96.118 Q 295.541 95.926 294.188 95.565 A 29.431 29.431 0 0 1 293.8 95.459 L 293.8 86.279 L 296.046 86.426 A 19.72 19.72 0 0 0 298.517 86.282 Q 301.212 85.94 302.809 84.79 Q 305.079 83.154 306.398 79.297 L 308.106 74.756 L 289.552 22.168 L 302.345 22.168 Z" id="5" vector-effect="non-scaling-stroke"/><path d="M 341.065 49.951 L 341.065 48.486 A 35.138 35.138 0 0 1 341.927 40.557 A 28.761 28.761 0 0 1 344.117 34.351 A 24.03 24.03 0 0 1 349.331 27.23 A 22.547 22.547 0 0 1 352.687 24.658 A 22.655 22.655 0 0 1 364.991 21.191 A 27.141 27.141 0 0 1 371.83 22.005 A 18.839 18.839 0 0 1 381.666 28.076 Q 386.613 33.865 387.401 43.693 A 48.424 48.424 0 0 1 387.55 47.559 L 387.55 52.344 L 353.028 52.344 A 20.067 20.067 0 0 0 353.923 56.953 A 14.162 14.162 0 0 0 357.398 62.695 A 12.964 12.964 0 0 0 366.279 66.487 A 17.149 17.149 0 0 0 367.042 66.504 A 15.867 15.867 0 0 0 379.123 61.321 A 20.296 20.296 0 0 0 380.323 59.912 L 386.72 66.016 Q 383.546 70.752 378.248 73.364 Q 372.95 75.977 366.358 75.977 A 29.112 29.112 0 0 1 357.899 74.804 A 22.906 22.906 0 0 1 348.072 68.872 A 23.847 23.847 0 0 1 341.589 56.061 A 34.105 34.105 0 0 1 341.065 49.951 Z M 353.224 43.652 L 375.831 43.652 L 375.831 42.773 Q 375.567 38.744 374.208 36.044 A 10.089 10.089 0 0 0 372.657 33.765 A 9.128 9.128 0 0 0 367.479 30.941 A 13.439 13.439 0 0 0 364.942 30.713 A 11.314 11.314 0 0 0 361.157 31.321 A 9.682 9.682 0 0 0 357.057 34.131 Q 354.054 37.549 353.224 43.652 Z" id="6" vector-effect="non-scaling-stroke"/></g></svg>