<svg width="221.534" height="75.978" viewBox="0 0 221.534 75.978" xmlns="http://www.w3.org/2000/svg"><g id="svgGroup" stroke-linecap="round" fill-rule="evenodd" font-size="9pt" stroke="#000" stroke-width="0.25mm" fill="black" style="stroke:#000;stroke-width:0.25mm;fill:black"><path d="M 56.445 3.906 L 56.445 75 L 44.141 75 L 44.141 43.408 L 12.354 43.408 L 12.354 75 L 0 75 L 0 3.906 L 12.354 3.906 L 12.354 33.496 L 44.141 33.496 L 44.141 3.906 L 56.445 3.906 Z" id="0" vector-effect="non-scaling-stroke"/><path d="M 67.871 49.951 L 67.871 48.486 A 35.138 35.138 0 0 1 68.732 40.557 A 28.761 28.761 0 0 1 70.923 34.351 A 24.03 24.03 0 0 1 76.137 27.23 A 22.547 22.547 0 0 1 79.492 24.658 A 22.655 22.655 0 0 1 91.797 21.191 A 27.141 27.141 0 0 1 98.636 22.005 A 18.839 18.839 0 0 1 108.472 28.076 Q 113.419 33.865 114.206 43.693 A 48.424 48.424 0 0 1 114.355 47.559 L 114.355 52.344 L 79.834 52.344 A 20.067 20.067 0 0 0 80.728 56.953 A 14.162 14.162 0 0 0 84.204 62.695 A 12.964 12.964 0 0 0 93.085 66.487 A 17.149 17.149 0 0 0 93.848 66.504 A 15.867 15.867 0 0 0 105.928 61.321 A 20.296 20.296 0 0 0 107.129 59.912 L 113.525 66.016 Q 110.352 70.752 105.054 73.364 Q 99.756 75.977 93.164 75.977 A 29.112 29.112 0 0 1 84.705 74.804 A 22.906 22.906 0 0 1 74.878 68.872 A 23.847 23.847 0 0 1 68.395 56.061 A 34.105 34.105 0 0 1 67.871 49.951 Z M 80.029 43.652 L 102.637 43.652 L 102.637 42.773 Q 102.373 38.744 101.014 36.044 A 10.089 10.089 0 0 0 99.463 33.765 A 9.128 9.128 0 0 0 94.284 30.941 A 13.439 13.439 0 0 0 91.748 30.713 A 11.314 11.314 0 0 0 87.963 31.321 A 9.682 9.682 0 0 0 83.862 34.131 Q 80.859 37.549 80.029 43.652 Z" id="1" vector-effect="non-scaling-stroke"/><path d="M 136.182 0 L 136.182 75 L 124.316 75 L 124.316 0 L 136.182 0 Z" id="2" vector-effect="non-scaling-stroke"/><path d="M 161.719 0 L 161.719 75 L 149.854 75 L 149.854 0 L 161.719 0 Z" id="3" vector-effect="non-scaling-stroke"/><path d="M 172.412 48.682 L 172.412 48.096 A 33.799 33.799 0 0 1 173.385 39.848 A 28.661 28.661 0 0 1 175.488 34.106 A 23.459 23.459 0 0 1 180.379 27.381 A 21.699 21.699 0 0 1 184.131 24.536 A 23.484 23.484 0 0 1 194.057 21.329 A 29.207 29.207 0 0 1 196.924 21.191 A 27.079 27.079 0 0 1 204.947 22.328 A 21.726 21.726 0 0 1 214.282 28.076 A 24.918 24.918 0 0 1 220.625 39.979 A 35.053 35.053 0 0 1 221.484 46.338 L 221.533 49.121 A 34.842 34.842 0 0 1 220.686 56.953 A 28.508 28.508 0 0 1 218.53 63.086 Q 215.527 69.238 209.937 72.607 A 23.518 23.518 0 0 1 200.197 75.81 A 29.532 29.532 0 0 1 197.021 75.977 A 27.135 27.135 0 0 1 188.82 74.794 A 21.601 21.601 0 0 1 179.126 68.53 A 25.308 25.308 0 0 1 173.282 56.966 A 37.314 37.314 0 0 1 172.412 48.682 Z M 184.277 49.121 A 31.886 31.886 0 0 0 184.64 54.091 Q 185.056 56.725 185.951 58.856 A 14.884 14.884 0 0 0 187.646 61.89 A 10.725 10.725 0 0 0 195.384 66.413 A 14.306 14.306 0 0 0 197.021 66.504 A 12.307 12.307 0 0 0 201.308 65.789 Q 204.334 64.673 206.372 61.816 A 15.512 15.512 0 0 0 208.475 57.491 Q 209.135 55.424 209.444 52.902 A 39.589 39.589 0 0 0 209.717 48.096 A 30.182 30.182 0 0 0 209.315 43.01 Q 208.843 40.253 207.817 38.03 A 15.16 15.16 0 0 0 206.274 35.4 A 11.396 11.396 0 0 0 202.397 31.978 Q 200.181 30.812 197.399 30.721 A 14.525 14.525 0 0 0 196.924 30.713 Q 191.113 30.713 187.695 35.327 A 14.897 14.897 0 0 0 185.563 39.579 Q 184.277 43.491 184.277 49.121 Z" id="4" vector-effect="non-scaling-stroke"/></g></svg>