<svg width="153.516" height="72.072" viewBox="0 0 153.516 72.072" xmlns="http://www.w3.org/2000/svg"><g id="svgGroup" stroke-linecap="round" fill-rule="evenodd" font-size="9pt" stroke="#000" stroke-width="0.25mm" fill="black" style="stroke:#000;stroke-width:0.25mm;fill:black"><path d="M 12.354 0 L 12.354 61.23 L 44.629 61.23 L 44.629 71.094 L 0 71.094 L 0 0 L 12.354 0 Z" id="0" vector-effect="non-scaling-stroke"/><path d="M 50.928 46.045 L 50.928 44.58 A 35.138 35.138 0 0 1 51.789 36.651 A 28.761 28.761 0 0 1 53.979 30.444 A 24.03 24.03 0 0 1 59.193 23.324 A 22.547 22.547 0 0 1 62.549 20.752 A 22.655 22.655 0 0 1 74.854 17.285 A 27.141 27.141 0 0 1 81.692 18.099 A 18.839 18.839 0 0 1 91.528 24.17 Q 96.475 29.959 97.263 39.786 A 48.424 48.424 0 0 1 97.412 43.652 L 97.412 48.438 L 62.891 48.438 A 20.067 20.067 0 0 0 63.785 53.046 A 14.162 14.162 0 0 0 67.261 58.789 A 12.964 12.964 0 0 0 76.141 62.581 A 17.149 17.149 0 0 0 76.904 62.598 A 15.867 15.867 0 0 0 88.985 57.415 A 20.296 20.296 0 0 0 90.186 56.006 L 96.582 62.109 Q 93.408 66.846 88.11 69.458 Q 82.813 72.07 76.221 72.07 A 29.112 29.112 0 0 1 67.761 70.898 A 22.906 22.906 0 0 1 57.935 64.966 A 23.847 23.847 0 0 1 51.452 52.155 A 34.105 34.105 0 0 1 50.928 46.045 Z M 63.086 39.746 L 85.693 39.746 L 85.693 38.867 Q 85.429 34.838 84.07 32.138 A 10.089 10.089 0 0 0 82.52 29.858 A 9.128 9.128 0 0 0 77.341 27.035 A 13.439 13.439 0 0 0 74.805 26.807 A 11.314 11.314 0 0 0 71.019 27.415 A 9.682 9.682 0 0 0 66.919 30.225 Q 63.916 33.643 63.086 39.746 Z" id="1" vector-effect="non-scaling-stroke"/><path d="M 104.395 44.775 L 104.395 44.189 A 33.799 33.799 0 0 1 105.368 35.942 A 28.661 28.661 0 0 1 107.471 30.2 A 23.459 23.459 0 0 1 112.361 23.475 A 21.699 21.699 0 0 1 116.113 20.63 A 23.484 23.484 0 0 1 126.039 17.423 A 29.207 29.207 0 0 1 128.906 17.285 A 27.079 27.079 0 0 1 136.93 18.421 A 21.726 21.726 0 0 1 146.265 24.17 A 24.918 24.918 0 0 1 152.608 36.072 A 35.053 35.053 0 0 1 153.467 42.432 L 153.516 45.215 A 34.842 34.842 0 0 1 152.668 53.047 A 28.508 28.508 0 0 1 150.513 59.18 Q 147.51 65.332 141.919 68.701 A 23.518 23.518 0 0 1 132.18 71.903 A 29.532 29.532 0 0 1 129.004 72.07 A 27.135 27.135 0 0 1 120.803 70.888 A 21.601 21.601 0 0 1 111.108 64.624 A 25.308 25.308 0 0 1 105.264 53.06 A 37.314 37.314 0 0 1 104.395 44.775 Z M 116.26 45.215 A 31.886 31.886 0 0 0 116.623 50.185 Q 117.039 52.819 117.933 54.95 A 14.884 14.884 0 0 0 119.629 57.983 A 10.725 10.725 0 0 0 127.367 62.506 A 14.306 14.306 0 0 0 129.004 62.598 A 12.307 12.307 0 0 0 133.29 61.882 Q 136.316 60.767 138.354 57.91 A 15.512 15.512 0 0 0 140.457 53.585 Q 141.117 51.518 141.426 48.995 A 39.589 39.589 0 0 0 141.699 44.189 A 30.182 30.182 0 0 0 141.297 39.103 Q 140.825 36.347 139.799 34.124 A 15.16 15.16 0 0 0 138.257 31.494 A 11.396 11.396 0 0 0 134.38 28.072 Q 132.164 26.905 129.382 26.814 A 14.525 14.525 0 0 0 128.906 26.807 Q 123.096 26.807 119.678 31.421 A 14.897 14.897 0 0 0 117.545 35.673 Q 116.26 39.585 116.26 45.215 Z" id="2" vector-effect="non-scaling-stroke"/></g></svg>